<?xml version="1.0" encoding="UTF-8" standalone="no"?>
<svg
   xmlns:dc="http://purl.org/dc/elements/1.1/"
   xmlns:cc="http://creativecommons.org/ns#"
   xmlns:rdf="http://www.w3.org/1999/02/22-rdf-syntax-ns#"
   xmlns:svg="http://www.w3.org/2000/svg"
   xmlns="http://www.w3.org/2000/svg"
   version="1.1"
   id="svg4249"
   viewBox="0 0 477.56903 477.56898"
   height="134.78058mm"
   width="134.78059mm">
  <defs
     id="defs4251" />
  <metadata
     id="metadata4254">
    <rdf:RDF>
      <cc:Work
         rdf:about="">
        <dc:format>image/svg+xml</dc:format>
        <dc:type
           rdf:resource="http://purl.org/dc/dcmitype/StillImage" />
        <dc:title></dc:title>
      </cc:Work>
    </rdf:RDF>
  </metadata>
  <g
     transform="translate(-101.2155,-293.5777)"
     id="layer1">
    <g
       style="fill:#f0f0f0;fill-opacity:1"
       transform="matrix(0.88766207,0,0,0.88766207,547.33267,-289.04414)"
       id="g4238">
      <g
         style="fill:#f0f0f0;fill-opacity:1"
         id="g4218"
         transform="translate(-592.85714,-138.57143)">
        <path
           id="path4214"
           d="m 312.81281,979.33634 c -46.07532,43.26666 -85.24348,136.33566 -60.66993,190.88286 15.18177,33.6997 70.17903,28.572 107.14063,28.5722 36.96305,2e-4 91.96199,5.1288 107.14453,-28.5722 24.57315,-54.5456 -14.5923,-147.6107 -60.66602,-190.87896 a 73.571426,73.571426 0 0 1 -0.74414,0.65235 73.571426,73.571426 0 0 1 -5.98242,4.27734 73.571426,73.571426 0 0 1 -6.3789,3.66016 73.571426,73.571426 0 0 1 -6.7129,3.0039 73.571426,73.571426 0 0 1 -6.97851,2.31836 73.571426,73.571426 0 0 1 -7.17578,1.61133 73.571426,73.571426 0 0 1 -7.30078,0.88672 73.571426,73.571426 0 0 1 -5.20313,0.18359 73.571426,73.571426 0 0 1 -7.3457,-0.36718 73.571426,73.571426 0 0 1 -7.27149,-1.09961 73.571426,73.571426 0 0 1 -7.125,-1.81836 73.571426,73.571426 0 0 1 -6.9082,-2.52344 73.571426,73.571426 0 0 1 -6.62109,-3.19727 73.571426,73.571426 0 0 1 -6.26953,-3.84375 73.571426,73.571426 0 0 1 -4.93164,-3.74804 z"
           style="opacity:0.98999999;fill:#f0f0f0;fill-opacity:1;stroke:none;stroke-width:1;stroke-miterlimit:4;stroke-dasharray:none;stroke-opacity:1" />
        <circle
           r="73.571426"
           cy="902.36212"
           cx="359.28574"
           id="circle4216"
           style="opacity:0.98999999;fill:#f0f0f0;fill-opacity:1;stroke:none;stroke-width:1;stroke-miterlimit:4;stroke-dasharray:none;stroke-opacity:1" />
      </g>
      <g
         style="fill:#f0f0f0;fill-opacity:1"
         id="g4222"
         transform="translate(-438.57198,-38.571429)">
        <path
           style="opacity:0.98999999;fill:#f0f0f0;fill-opacity:1;stroke:none;stroke-width:1;stroke-miterlimit:4;stroke-dasharray:none;stroke-opacity:1"
           d="m 312.81281,979.33634 c -46.07532,43.26666 -85.24348,136.33566 -60.66993,190.88286 15.18177,33.6997 70.17903,28.572 107.14063,28.5722 36.96305,2e-4 91.96199,5.1288 107.14453,-28.5722 24.57315,-54.5456 -14.5923,-147.6107 -60.66602,-190.87896 a 73.571426,73.571426 0 0 1 -0.74414,0.65235 73.571426,73.571426 0 0 1 -5.98242,4.27734 73.571426,73.571426 0 0 1 -6.3789,3.66016 73.571426,73.571426 0 0 1 -6.7129,3.0039 73.571426,73.571426 0 0 1 -6.97851,2.31836 73.571426,73.571426 0 0 1 -7.17578,1.61133 73.571426,73.571426 0 0 1 -7.30078,0.88672 73.571426,73.571426 0 0 1 -5.20313,0.18359 73.571426,73.571426 0 0 1 -7.3457,-0.36718 73.571426,73.571426 0 0 1 -7.27149,-1.09961 73.571426,73.571426 0 0 1 -7.125,-1.81836 73.571426,73.571426 0 0 1 -6.9082,-2.52344 73.571426,73.571426 0 0 1 -6.62109,-3.19727 73.571426,73.571426 0 0 1 -6.26953,-3.84375 73.571426,73.571426 0 0 1 -4.93164,-3.74804 z"
           id="path4224" />
        <circle
           style="opacity:0.98999999;fill:#f0f0f0;fill-opacity:1;stroke:none;stroke-width:1;stroke-miterlimit:4;stroke-dasharray:none;stroke-opacity:1"
           id="circle4226"
           cx="359.28574"
           cy="902.36212"
           r="73.571426" />
      </g>
      <g
         style="fill:#f0f0f0;fill-opacity:1"
         transform="translate(-747.1423,-38.571429)"
         id="g4228">
        <path
           id="path4230"
           d="m 312.81281,979.33634 c -46.07532,43.26666 -85.24348,136.33566 -60.66993,190.88286 15.18177,33.6997 70.17903,28.572 107.14063,28.5722 36.96305,2e-4 91.96199,5.1288 107.14453,-28.5722 24.57315,-54.5456 -14.5923,-147.6107 -60.66602,-190.87896 a 73.571426,73.571426 0 0 1 -0.74414,0.65235 73.571426,73.571426 0 0 1 -5.98242,4.27734 73.571426,73.571426 0 0 1 -6.3789,3.66016 73.571426,73.571426 0 0 1 -6.7129,3.0039 73.571426,73.571426 0 0 1 -6.97851,2.31836 73.571426,73.571426 0 0 1 -7.17578,1.61133 73.571426,73.571426 0 0 1 -7.30078,0.88672 73.571426,73.571426 0 0 1 -5.20313,0.18359 73.571426,73.571426 0 0 1 -7.3457,-0.36718 73.571426,73.571426 0 0 1 -7.27149,-1.09961 73.571426,73.571426 0 0 1 -7.125,-1.81836 73.571426,73.571426 0 0 1 -6.9082,-2.52344 73.571426,73.571426 0 0 1 -6.62109,-3.19727 73.571426,73.571426 0 0 1 -6.26953,-3.84375 73.571426,73.571426 0 0 1 -4.93164,-3.74804 z"
           style="opacity:0.98999999;fill:#f0f0f0;fill-opacity:1;stroke:none;stroke-width:1;stroke-miterlimit:4;stroke-dasharray:none;stroke-opacity:1" />
        <circle
           r="73.571426"
           cy="902.36212"
           cx="359.28574"
           id="circle4232"
           style="opacity:0.98999999;fill:#f0f0f0;fill-opacity:1;stroke:none;stroke-width:1;stroke-miterlimit:4;stroke-dasharray:none;stroke-opacity:1" />
      </g>
    </g>
  </g>
</svg>
