<?xml version="1.0" encoding="UTF-8" standalone="no"?>
<svg
   xmlns:dc="http://purl.org/dc/elements/1.1/"
   xmlns:cc="http://creativecommons.org/ns#"
   xmlns:rdf="http://www.w3.org/1999/02/22-rdf-syntax-ns#"
   xmlns:svg="http://www.w3.org/2000/svg"
   xmlns="http://www.w3.org/2000/svg"
   version="1.1"
   id="svg4249"
   viewBox="0 0 477.56903 477.56898"
   height="134.78058mm"
   width="134.78059mm">
  <defs
     id="defs4251" />
  <metadata
     id="metadata4254">
    <rdf:RDF>
      <cc:Work
         rdf:about="">
        <dc:format>image/svg+xml</dc:format>
        <dc:type
           rdf:resource="http://purl.org/dc/dcmitype/StillImage" />
        <dc:title></dc:title>
      </cc:Work>
    </rdf:RDF>
  </metadata>
  <g
     transform="translate(-101.2155,-293.5777)"
     id="layer1">
    <g
       style="fill:#f0f0f0;fill-opacity:1"
       transform="translate(-118.9453,101.01075)"
       id="g4172">
      <path
         style="opacity:0.98999999;fill:#f0f0f0;fill-opacity:1;stroke:none;stroke-width:1;stroke-miterlimit:4;stroke-dasharray:none;stroke-opacity:1"
         d="m 264.66016,343.79102 c 0,0 -24,54.85332 -24,127.61523 0,72.76191 3.99999,194.28516 24,194.28516 0,0 126.08789,9.99999 126.08789,0 0,-20.00001 30.53316,-149.29268 68.19726,-149.29297 37.66411,2.8e-4 68.19719,129.29296 68.19727,149.29297 4e-5,9.99999 126.08789,0 126.08789,0 20.00001,0 24,-121.52325 24,-194.28516 0,-72.76191 -24,-127.61523 -24,-127.61523 z"
         id="rect4136" />
      <path
         style="opacity:0.98999999;fill:#f0f0f0;fill-opacity:1;stroke:none;stroke-width:1;stroke-miterlimit:4;stroke-dasharray:none;stroke-opacity:1"
         id="path4149"
         d="M 97.039108,413.87263 C 73.457278,373.0277 285.69377,5.4233388 332.85743,5.4233398 c 47.16366,1.1e-6 259.40013,367.6043702 235.8183,408.4493002 -23.58183,40.84493 -448.05479,40.84492 -471.636622,-10e-6 z"
         transform="matrix(1,0,0,0.36503552,126.08789,197.39292)" />
      <path
         style="opacity:0.98999999;fill:#f0f0f0;fill-opacity:1;stroke:none;stroke-width:1;stroke-miterlimit:4;stroke-dasharray:none;stroke-opacity:1"
         d="m 562.47378,207.71934 c 0,-20.20305 60.60916,-20.20305 60.60916,0 0,28.12895 0,134.3503 0,134.3503 l -60.60916,0 c 0,0 0,-106.22135 0,-134.3503 z"
         id="rect4151" />
    </g>
  </g>
</svg>
