<?xml version="1.0" encoding="UTF-8" standalone="no"?>
<svg
   xmlns:dc="http://purl.org/dc/elements/1.1/"
   xmlns:cc="http://creativecommons.org/ns#"
   xmlns:rdf="http://www.w3.org/1999/02/22-rdf-syntax-ns#"
   xmlns:svg="http://www.w3.org/2000/svg"
   xmlns="http://www.w3.org/2000/svg"
   version="1.1"
   id="svg5358"
   viewBox="0 0 494.67381 494.67375"
   height="139.60793mm"
   width="139.60794mm">
  <defs
     id="defs5360" />
  <metadata
     id="metadata5363">
    <rdf:RDF>
      <cc:Work
         rdf:about="">
        <dc:format>image/svg+xml</dc:format>
        <dc:type
           rdf:resource="http://purl.org/dc/dcmitype/StillImage" />
        <dc:title></dc:title>
      </cc:Work>
    </rdf:RDF>
  </metadata>
  <g
     transform="translate(-53.72701,-147.64458)"
     id="layer1">
    <g
       id="g4725"
       transform="translate(-162.61459,-161.7691)">
      <path
         style="opacity:1;fill:#f0f0f0;fill-opacity:1;stroke:none;stroke-width:1;stroke-miterlimit:4;stroke-dasharray:none;stroke-opacity:1"
         d="m 216.3416,556.75056 c 0,57.86582 0,146.53719 0,247.33688 59.56017,0 168.60239,0 247.33689,0 l 247.3369,0 0,-247.33688 c 0,-136.60039 -110.7365,-247.33689 -247.3369,-247.33688 -136.6004,-10e-6 -247.33689,110.73649 -247.33689,247.33688 z"
         id="circle4228" />
      <path
         id="path4218"
         d="m 403.86189,556.7506 c 0,-33.04383 26.78,-59.83837 59.8238,-59.83837 33.0438,0 59.8384,26.79454 59.8384,59.83837 0,33.04375 -26.7946,59.83829 -59.8384,59.83829 -33.0438,0 -59.8238,-26.79454 -59.8238,-59.83829 m -32.3478,0 c 0,50.90675 41.2649,92.17159 92.1716,92.17159 50.9069,0 92.1717,-41.26484 92.1717,-92.17159 0,-50.90683 -41.2648,-92.17176 -92.1717,-92.17176 -50.9067,0 -92.1716,41.26493 -92.1716,92.17176 m 166.4513,-95.82549 c 0,11.88929 9.642,21.54583 21.5458,21.54583 11.8894,0 21.5459,-9.65654 21.5459,-21.54583 0,-11.88938 -9.642,-21.53137 -21.5459,-21.53137 -11.9038,0 -21.5458,9.64199 -21.5458,21.53137 m -146.8048,241.93433 c -17.5007,-0.79749 -27.0121,-3.71185 -33.3338,-6.17671 -8.3806,-3.26236 -14.3543,-7.14811 -20.647,-13.42633 -6.2782,-6.27813 -10.1784,-12.25184 -13.4263,-20.63238 -2.4648,-6.32169 -5.37922,-15.83316 -6.17662,-33.3338 -0.86997,-18.92152 -1.04388,-24.60517 -1.04388,-72.53962 0,-47.93453 0.18837,-53.60372 1.04388,-72.5397 0.7974,-17.50064 3.72632,-26.99764 6.17662,-33.3338 3.2624,-8.38054 7.1481,-14.35425 13.4263,-20.64693 6.2783,-6.27822 12.252,-10.17853 20.647,-13.42633 6.3217,-2.46486 15.8331,-5.37923 33.3338,-6.17662 18.9215,-0.86998 24.6052,-1.04398 72.5251,-1.04398 47.9346,0 53.6038,0.18846 72.5397,1.04398 17.5007,0.79739 26.9976,3.72631 33.3337,6.17662 8.3807,3.2478 14.3543,7.14811 20.647,13.42633 6.2782,6.27822 10.164,12.26639 13.4263,20.64693 2.4649,6.32169 5.3792,15.83316 6.1766,33.3338 0.8701,18.93598 1.044,24.60517 1.044,72.5397 0,47.91998 -0.1739,53.60364 -1.044,72.53962 -0.7974,17.50064 -3.7262,27.01211 -6.1766,33.3338 -3.2623,8.38054 -7.1481,14.35425 -13.4263,20.63238 -6.2782,6.27822 -12.2663,10.16397 -20.647,13.42633 -6.3216,2.46486 -15.833,5.37922 -33.3337,6.17671 -18.9215,0.86989 -24.6051,1.04389 -72.5397,1.04389 -47.9199,0 -53.6036,-0.174 -72.5251,-1.04389 m -1.4789,-324.52205 c -19.1101,0.86989 -32.1594,3.90031 -43.5703,8.33707 -11.8024,4.58174 -21.8068,10.72944 -31.79687,20.70487 -9.97543,9.97551 -16.12313,19.98004 -20.70487,31.79685 -4.43684,11.41096 -7.46717,24.46028 -8.33706,43.57026 -0.88444,19.139 -1.08745,25.25768 -1.08745,74.00416 0,48.7464 0.20301,54.86508 1.08745,74.00408 0.86989,19.10998 3.90022,32.1593 8.33706,43.57018 4.58174,11.80242 10.71489,21.82142 20.70487,31.79685 9.97547,9.97551 19.98007,16.10866 31.79687,20.70495 11.4254,4.43676 24.4602,7.46709 43.5703,8.33707 19.1534,0.86998 25.2575,1.08745 74.004,1.08745 48.761,0 54.8652,-0.20301 74.0041,-1.08745 19.1101,-0.86998 32.1594,-3.90031 43.5703,-8.33707 11.8023,-4.59629 21.8068,-10.72944 31.7968,-20.70495 9.9754,-9.97543 16.1087,-19.99443 20.7049,-31.79685 4.4368,-11.41088 7.4817,-24.4602 8.3371,-43.57018 0.8699,-19.15355 1.0729,-25.25768 1.0729,-74.00408 0,-48.74648 -0.203,-54.86516 -1.0729,-74.00416 -0.87,-19.10998 -3.9003,-32.1593 -8.3371,-43.57026 -4.5962,-11.80234 -10.7295,-21.80687 -20.7049,-31.79685 -9.9755,-9.97543 -19.9945,-16.12313 -31.7823,-20.70487 -11.4254,-4.43676 -24.4747,-7.48164 -43.5702,-8.33707 -19.139,-0.86998 -25.2577,-1.08745 -74.0042,-1.08745 -48.761,0 -54.8651,0.20301 -74.0185,1.08745"
         style="fill:#f33b4a;fill-opacity:1" />
    </g>
  </g>
</svg>
