<?xml version="1.0" encoding="UTF-8" standalone="no"?>
<svg
   xmlns:dc="http://purl.org/dc/elements/1.1/"
   xmlns:cc="http://creativecommons.org/ns#"
   xmlns:rdf="http://www.w3.org/1999/02/22-rdf-syntax-ns#"
   xmlns:svg="http://www.w3.org/2000/svg"
   xmlns="http://www.w3.org/2000/svg"
   version="1.1"
   id="svg4249"
   viewBox="0 0 477.56903 477.56898"
   height="134.78058mm"
   width="134.78059mm">
  <defs
     id="defs4251" />
  <metadata
     id="metadata4254">
    <rdf:RDF>
      <cc:Work
         rdf:about="">
        <dc:format>image/svg+xml</dc:format>
        <dc:type
           rdf:resource="http://purl.org/dc/dcmitype/StillImage" />
        <dc:title></dc:title>
      </cc:Work>
    </rdf:RDF>
  </metadata>
  <g
     transform="translate(-101.2155,-293.5777)"
     id="layer1">
    <path
       id="rect5046"
       d="m 113.71428,380.71577 101.06783,377.1903 275.78879,-73.8974 -101.06782,-377.1903 z m 248.70364,-31.9481 -73.96085,39.5831 -72.70779,9.9238 -50.32758,21.9394 48.77466,-27.7349 72.7078,-9.9239 z m -57.33145,83.6922 68.69043,-8.0811 -67.13751,13.8766 -57.60385,27.4518 -62.10562,3.9348 60.5527,-9.7303 z m -43.22679,72.8822 68.74073,1.6678 62.11215,-30.2167 -60.55923,36.0123 -68.74073,-1.6678 -62.69121,31.8439 z m 87.87847,39.2834 57.6287,-2.3732 -56.07578,8.1688 -57.52853,43.082 -75.21087,5.1554 73.65796,-10.9509 z m 75.05358,54.0998 -48.48582,34.3443 -91.90061,16.9956 -49.39243,19.8224 47.83951,-25.618 91.90062,-16.9956 z"
       style="opacity:0.98999999;fill:#f0eef0;fill-opacity:1;stroke:none;stroke-width:5;stroke-linecap:round;stroke-linejoin:round;stroke-miterlimit:4;stroke-dasharray:none;stroke-opacity:1" />
    <g
       transform="matrix(0.81486027,0.57965743,-0.57965743,0.81486027,460.74788,-446.50957)"
       id="g5069">
      <ellipse
         style="opacity:0.98999999;fill:#f0eef0;fill-opacity:1;stroke:none;stroke-width:5;stroke-linecap:round;stroke-linejoin:round;stroke-miterlimit:4;stroke-dasharray:none;stroke-opacity:1"
         id="path5065"
         cx="552.55298"
         cy="631.1286"
         rx="21.212999"
         ry="21.213203" />
      <rect
         style="opacity:0.98999999;fill:#f0eef0;fill-opacity:1;stroke:none;stroke-width:5;stroke-linecap:round;stroke-linejoin:round;stroke-miterlimit:4;stroke-dasharray:none;stroke-opacity:1"
         id="rect5067"
         width="42.425999"
         height="249.50769"
         x="531.33997"
         y="631.1286" />
    </g>
  </g>
</svg>
