<?xml version="1.0" encoding="UTF-8" standalone="no"?>
<svg
   xmlns:ns0="http://ns.adobe.com/SaveForWeb/1.0/"
   xmlns:ns="http://ns.adobe.com/Variables/1.0/"
   xmlns:i="http://ns.adobe.com/AdobeIllustrator/10.0/"
   xmlns:dc="http://purl.org/dc/elements/1.1/"
   xmlns:cc="http://creativecommons.org/ns#"
   xmlns:rdf="http://www.w3.org/1999/02/22-rdf-syntax-ns#"
   xmlns:svg="http://www.w3.org/2000/svg"
   xmlns="http://www.w3.org/2000/svg"
   i:viewOrigin="220.667 415.25"
   i:rulerOrigin="0 0"
   i:pageBounds="0 792 612 0"
   width="560.84698"
   height="104.055"
   viewBox="0 0 560.84698 104.055"
   overflow="visible"
   enable-background="new 0 0 169.526 39.506"
   xml:space="preserve"
   id="svg2"
   version="1.1"
   style="overflow:visible"><defs
     id="defs29" /><metadata
     id="metadata4"><ns:variableSets><ns:variableSet
         varSetName="binding1"
         locked="none"><ns:variables /><ns:sampleDataSets /></ns:variableSet></ns:variableSets><ns0:sfw><ns0:slices /><ns0:sliceSourceBounds
         x="220.667"
         y="375.744"
         width="169.526"
         height="39.506"
         bottomLeftOrigin="true" /></ns0:sfw><rdf:RDF><cc:Work
         rdf:about=""><dc:format>image/svg+xml</dc:format><dc:type
           rdf:resource="http://purl.org/dc/dcmitype/StillImage" /><dc:title></dc:title></cc:Work></rdf:RDF></metadata><g
     transform="translate(-16.065,0)"
     id="g4183"><g
       transform="translate(0,-16.670496)"
       style="fill:#ffffff"
       id="g4470"><path
         id="path4372"
         d="m 16.065,17.104496 0,13.433 24.332,0 0,66.318 16.863,-1.1e-5 0,-67.595489 25.5535,0 0,-11.732 -66.7485,0"
         style="fill:#ffffff;fill-rule:evenodd;stroke:none;stroke-width:0.2857143px;stroke-linecap:butt;stroke-linejoin:miter;stroke-opacity:1" /><path
         id="path4374"
         d="m 145.6105,17.527996 -57.834,0 0,78.462989 57.407,0 0,-12.999 -42.042,0 0,-21.756 42.042,0 0,-12.785489 -41.825,0 0,-18.5535 42.252,0 z"
         style="fill:#ffffff;fill-rule:evenodd;stroke:none;stroke-width:0.2857143px;stroke-linecap:butt;stroke-linejoin:miter;stroke-opacity:1" /><path
         id="path4376"
         d="m 150.3005,17.527996 0,78.466489 17.0765,0 0,-30.8035 20.30226,0.26565 2.79189,1.087695 3.5298,4.070115 1.33755,4.70554 -5.36931,17.079073 7.92081,3.598927 15.372,0 0.51149,-26.154485 -8.67365,-12.72404 11.95664,-3.914498 1.33545,-13.953726 -6.94501,-14.808462 -8.42592,-6.914778 z"
         style="fill:#ffffff;fill-rule:evenodd;stroke:none;stroke-width:0.2857143px;stroke-linecap:butt;stroke-linejoin:miter;stroke-opacity:1" /><path
         id="path4378"
         d="m 215.614,95.357485 15.785,0 5.768,-14.069999 27.5345,0 4.914,14.707 16.4255,0 -23.905,-78.46649 -22.08765,0 z"
         style="fill:#ffffff;fill-rule:evenodd;stroke:none;stroke-width:0.2857143px;stroke-linecap:butt;stroke-linejoin:miter;stroke-opacity:1" /><path
         id="path4380"
         d="m 290.0905,17.527996 0,78.889989 37.3485,0 24.15086,-0.705074 10.24218,-26.13527 -2.29565,-21.367336 -9.28493,-19.289609 -7.97272,-8.566736 -4.57661,-2.825964 z"
         style="fill:#ffffff;fill-rule:evenodd;stroke:none;stroke-width:0.2857143px;stroke-linecap:butt;stroke-linejoin:miter;stroke-opacity:1" /><path
         id="path4382"
         d="m 374.39151,96.417985 15.582,0 0.4165,-31.989999 27.7585,-46.89999 -20.52967,0 -16.18533,32.6235 -15.52901,-32.623654 -20.2412,1.54e-4 28.72821,47.550989 z"
         style="fill:#ffffff;fill-rule:evenodd;stroke:none;stroke-width:0.2857143px;stroke-linecap:butt;stroke-linejoin:miter;stroke-opacity:1" /><path
         id="path4384"
         d="m 483.65101,17.528002 -16.6425,-6e-6 0,49.048989 -29.4455,-47.340989 -1.06235,-1.708 -18.35215,0 0,78.893489 15.785,0 0,-51.176989 31.1675,51.390489 18.55,0 z"
         style="fill:#ffffff;fill-rule:evenodd;stroke:none;stroke-width:0.2857143px;stroke-linecap:butt;stroke-linejoin:miter;stroke-opacity:1" /><path
         id="path4386"
         d="m 492.40801,16.670496 0,79.110489 57.624,0 0,-13.223 -42.042,0 0,-21.959 42.042,0 0,-14.069989 -42.8925,0 0,-17.6995 43.1025,0 0,-11.3015 -57.834,0"
         style="fill:#ffffff;fill-rule:evenodd;stroke:none;stroke-width:0.2857143px;stroke-linecap:butt;stroke-linejoin:miter;stroke-opacity:1" /></g><g
       id="g11"
       transform="matrix(3.5,0,0,3.5,0,-16.670496)"><path
         style="clip-rule:evenodd;fill:#194a99;fill-rule:evenodd"
         id="path13"
         d="m 11.542,8.725 0,5.42 -6.952,-5.42 6.952,0 z"
         i:knockout="Off" /><path
         style="clip-rule:evenodd;fill:#194a99;fill-rule:evenodd"
         id="path15"
         d="m 133.431,19.022 0,-7.01 -8.71653,-7.0039999 z"
         i:knockout="Off" /><path
         style="clip-rule:evenodd;fill:#194a99;fill-rule:evenodd"
         id="path17"
         d="M 108.981,14.329 104.54416,5.0079989 111.054,10.368 Z"
         i:knockout="Off" /><path
         style="clip-rule:evenodd;fill:#194a99;fill-rule:evenodd"
         id="path19"
         d="m 47.822,18.626 0,8.801 -4.879,0 0,-21.3810011 -1.34,-1.038 0,3.534 -12.072,0 0,5.3010011 11.95,0 0,3.653 -12.012,0 0,6.216 12.012,0 0,3.714 -16.402,0 0,-21.868 -1.418,-0.5500011 0,3.3520011 -7.301,0 0,19.313 -4.818,0 8.827,6.82 4.635,0 0,-6.641 8.474,6.641 23.062,0 0,-6.274 8.583,6.274 9.393,0 1.781,-4.508 3.902,0 5.291,4.508 13.187,0 c 0,0 5.854,-0.791 8.779,-5.905 l 7.851,5.905 4.086,0 0,-6.516 1.051,0 7.912,6.516 4.574,0 0,-6.455 1.112,0 7.789,6.455 22.927,0 0,-3.714 -6.511,-6.702 6.524,0 0,-3.351 -5.364,-5.848 5.425,0 0,-3.29 -7.62,-6.5800011 0,3.2290011 -12.315,0 0,5.057 12.255,0 0,4.02 -12.012,0 0,6.274 12.012,0 0,3.778 -16.464,0 0,-20.774 -2.502,-1.5840011 0,22.6020011 -5.3,0 -8.905,-14.683 0,14.622 -4.51,0 0,-22.541 -7.931,13.4 -0.119,9.14 -4.452,0 0,-8.954 -5.67,-9.385 c 0,0 -1.893,-3.1030011 -4.818,-4.2010011 0,0 5.795,3.2890011 5.795,11.7580011 0,8.466 -7.928,10.782 -8.722,10.782 l -10.671,0 0,-16.448 -7.987,-6.0920011 6.83,22.4190011 -4.693,0 -1.404,-4.202 -7.867,0 -1.648,4.02 -4.51,0 4.815,-15.336978 c 0,0 -5.242,-5.1320231 -8.413,-6.9000231 0,0 3.414,2.5000011 3.414,6.3370011 0,3.839 -3.414,5.301 -3.414,5.301 0,0 2.319,2.191 2.319,4.019 0,1.828 0.333,6.488 0.607,6.763 l -4.392,0 c 0,0 -0.729,-0.541 -0.729,-1.278 l 0,-4.63 c 0,-0.527 -0.549,-2.863 -2.682,-2.863 z"
         i:knockout="Off" /><path
         style="clip-rule:evenodd;fill:#194a99;fill-rule:evenodd"
         id="path21"
         d="m 54.665,8.77 c 0.003,0 1.875,0.733 1.875,2.561 0,0.959 -0.685,3.608 -2.469,3.608 -1.781,0 -6.263,0.044 -6.263,0.044 l 0,-6.258 6.857,0.045 z"
         i:knockout="Off" /><path
         style="clip-rule:evenodd;fill:#194a99;fill-rule:evenodd"
         id="path23"
         d="m 74.56,19.463 -5.625,0 2.791,-8.639 2.834,8.639 z"
         i:knockout="Off" /><path
         style="clip-rule:evenodd;fill:#194a99;fill-rule:evenodd"
         id="path25"
         d="m 87.272,8.542 0,14.941 5.442,0 c 0,0 4.619,-1.51 4.619,-7.631 0,-6.123 -4.206,-7.31 -4.985,-7.31 -0.776,0 -5.076,0 -5.076,0 z"
         i:knockout="Off" /></g></g></svg>