<?xml version="1.0" encoding="UTF-8" standalone="no"?>
<!-- Generator: Adobe Illustrator 10.0, SVG Export Plug-In . SVG Version: 3.0.0 Build 76)  -->

<svg
   xmlns:ns0="http://ns.adobe.com/SaveForWeb/1.0/"
   xmlns:ns="http://ns.adobe.com/Variables/1.0/"
   xmlns:i="http://ns.adobe.com/AdobeIllustrator/10.0/"
   xmlns:dc="http://purl.org/dc/elements/1.1/"
   xmlns:cc="http://creativecommons.org/ns#"
   xmlns:rdf="http://www.w3.org/1999/02/22-rdf-syntax-ns#"
   xmlns:svg="http://www.w3.org/2000/svg"
   xmlns="http://www.w3.org/2000/svg"
   xmlns:sodipodi="http://sodipodi.sourceforge.net/DTD/sodipodi-0.dtd"
   xmlns:inkscape="http://www.inkscape.org/namespaces/inkscape"
   i:viewOrigin="220.667 415.25"
   i:rulerOrigin="0 0"
   i:pageBounds="0 792 612 0"
   width="169.526"
   height="39.506"
   viewBox="0 0 169.526 39.506"
   overflow="visible"
   enable-background="new 0 0 169.526 39.506"
   xml:space="preserve"
   id="svg2"
   version="1.1"
   inkscape:version="0.48.0 r9654"
   sodipodi:docname="Teradyne.svg"><defs
   id="defs29" /><sodipodi:namedview
   pagecolor="#ffffff"
   bordercolor="#666666"
   borderopacity="1"
   objecttolerance="10"
   gridtolerance="10"
   guidetolerance="10"
   inkscape:pageopacity="0"
   inkscape:pageshadow="2"
   inkscape:window-width="640"
   inkscape:window-height="480"
   id="namedview27"
   showgrid="false"
   inkscape:zoom="2.8314241"
   inkscape:cx="84.763"
   inkscape:cy="19.753"
   inkscape:window-x="0"
   inkscape:window-y="0"
   inkscape:window-maximized="0"
   inkscape:current-layer="svg2" />
	<metadata
   id="metadata4">
		<ns:variableSets>
			<ns:variableSet
   varSetName="binding1"
   locked="none">
				<ns:variables />
				<ns:sampleDataSets />
			</ns:variableSet>
		</ns:variableSets>
		<ns0:sfw>
			<ns0:slices />
			<ns0:sliceSourceBounds
   x="220.667"
   y="375.744"
   width="169.526"
   height="39.506"
   bottomLeftOrigin="true" />
		</ns0:sfw>
	<rdf:RDF><cc:Work
     rdf:about=""><dc:format>image/svg+xml</dc:format><dc:type
       rdf:resource="http://purl.org/dc/dcmitype/StillImage" /><dc:title></dc:title></cc:Work></rdf:RDF></metadata>
	<g
   id="Layer_1"
   i:layer="yes"
   i:dimmedPercent="50"
   i:rgbTrio="#4F008000FFFF">
		<g
   id="g7">
			<path
   i:knockout="Off"
   fill-rule="evenodd"
   clip-rule="evenodd"
   fill="#FFFFFF"
   d="M0,0h169.526v39.506H0V0z"
   id="path9" />
			<g
   id="g11">
				<path
   i:knockout="Off"
   fill-rule="evenodd"
   clip-rule="evenodd"
   fill="#194A99"
   d="M11.542,8.725v5.42L4.59,8.725H11.542z"
   id="path13" />
				<path
   i:knockout="Off"
   fill-rule="evenodd"
   clip-rule="evenodd"
   fill="#194A99"
   d="M133.431,19.022v-7.01l-8.413-6.516      L133.431,19.022z"
   id="path15" />
				<path
   i:knockout="Off"
   fill-rule="evenodd"
   clip-rule="evenodd"
   fill="#194A99"
   d="M108.981,14.329l-4.146-8.71l6.219,4.749      L108.981,14.329z"
   id="path17" />
				<path
   i:knockout="Off"
   fill-rule="evenodd"
   clip-rule="evenodd"
   fill="#194A99"
   d="M47.822,18.626v8.801h-4.879V5.924      l-1.34-1.038V8.42H29.531v5.423h11.95v3.653H29.469v6.216h12.012v3.714H25.079V5.558l-1.418-0.671v3.473H16.36v19.313      l-4.085-0.306l8.094,7.126h4.635v-6.641l8.474,6.641H56.54v-6.274l8.583,6.274h9.393l1.781-4.508h3.902l5.291,4.508h13.187      c0,0,5.854-0.791,8.779-5.905l7.851,5.905h4.086v-6.516h1.051l7.912,6.516h4.574v-6.455h1.112l7.789,6.455h22.927v-3.714      l-6.511-6.702h6.524v-3.351l-5.364-5.848h5.425v-3.29l-7.62-6.825v3.474h-12.315v5.057h12.255v4.02h-12.012v6.274h12.012v3.778      h-16.464V6.592l-2.502-1.645V27.61h-5.3l-8.905-14.683v14.622h-4.51V5.008l-7.931,13.4l-0.119,9.14h-4.452v-8.954l-5.67-9.385      c0,0-1.893-2.738-4.818-3.836c0,0,5.795,2.924,5.795,11.393c0,8.466-7.928,10.782-8.722,10.782s-10.671,0-10.671,0V11.1      l-7.987-5.847l6.83,22.174h-4.693l-1.404-4.202h-7.867l-1.648,4.02h-4.51l4.815-15.168c0,0-5.242-4.934-8.413-6.702      c0,0,3.414,2.133,3.414,5.97c0,3.839-3.414,5.301-3.414,5.301s2.319,2.191,2.319,4.019c0,1.828,0.333,6.488,0.607,6.763H56.54      c0,0-0.729-0.541-0.729-1.278c0-0.366,0-4.105,0-4.63c0-0.527-0.549-2.863-2.682-2.863L47.822,18.626z"
   id="path19" />
				<path
   i:knockout="Off"
   fill-rule="evenodd"
   clip-rule="evenodd"
   fill="#194A99"
   d="M54.665,8.77      c0.003,0,1.875,0.733,1.875,2.561c0,0.959-0.685,3.608-2.469,3.608c-1.781,0-6.263,0.044-6.263,0.044V8.725L54.665,8.77z"
   id="path21" />
				<path
   i:knockout="Off"
   fill-rule="evenodd"
   clip-rule="evenodd"
   fill="#194A99"
   d="M74.56,19.463h-5.625l2.791-8.639      L74.56,19.463z"
   id="path23" />
				<path
   i:knockout="Off"
   fill-rule="evenodd"
   clip-rule="evenodd"
   fill="#194A99"
   d="M87.272,8.542v14.941h5.442      c0,0,4.619-1.51,4.619-7.631c0-6.123-4.206-7.31-4.985-7.31C91.572,8.542,87.272,8.542,87.272,8.542z"
   id="path25" />
			</g>
		</g>
	</g>
</svg>