<?xml version="1.0" encoding="UTF-8" standalone="no"?>
<!-- Created with Inkscape (http://www.inkscape.org/) -->

<svg
   xmlns:dc="http://purl.org/dc/elements/1.1/"
   xmlns:cc="http://creativecommons.org/ns#"
   xmlns:rdf="http://www.w3.org/1999/02/22-rdf-syntax-ns#"
   xmlns:svg="http://www.w3.org/2000/svg"
   xmlns="http://www.w3.org/2000/svg"
   xmlns:sodipodi="http://sodipodi.sourceforge.net/DTD/sodipodi-0.dtd"
   xmlns:inkscape="http://www.inkscape.org/namespaces/inkscape"
   width="569.46661"
   height="256"
   viewBox="0 0 569.46662 256"
   id="svg5008"
   version="1.1"
   inkscape:version="0.91 r13725"
   sodipodi:docname="TigerRoboticsLogo.svg">
  <defs
     id="defs5010" />
  <sodipodi:namedview
     id="base"
     pagecolor="#ffffff"
     bordercolor="#666666"
     borderopacity="1.0"
     inkscape:pageopacity="0.0"
     inkscape:pageshadow="2"
     inkscape:zoom="1.4"
     inkscape:cx="238.25592"
     inkscape:cy="171.4353"
     inkscape:document-units="px"
     inkscape:current-layer="layer1"
     showgrid="false"
     inkscape:window-width="1920"
     inkscape:window-height="1018"
     inkscape:window-x="-8"
     inkscape:window-y="-8"
     inkscape:window-maximized="1"
     units="px"
     fit-margin-top="0"
     fit-margin-left="0"
     fit-margin-right="0"
     fit-margin-bottom="0" />
  <metadata
     id="metadata5013">
    <rdf:RDF>
      <cc:Work
         rdf:about="">
        <dc:format>image/svg+xml</dc:format>
        <dc:type
           rdf:resource="http://purl.org/dc/dcmitype/StillImage" />
        <dc:title></dc:title>
      </cc:Work>
    </rdf:RDF>
  </metadata>
  <g
     inkscape:label="Layer 1"
     inkscape:groupmode="layer"
     id="layer1"
     transform="translate(-47.106195,-348.84327)">
    <g
       transform="matrix(2.6558565,0,0,2.6558565,-417.59581,35.961463)"
       id="g662"
       style="fill:#f0f0f0;fill-opacity:1">
      <path
         inkscape:connector-curvature="0"
         d="m 227.128,212.215 c 0,1.095 -1.091,1.984 -2.43,1.984 l -25.595,0 c -1.344,0 -2.431,-0.89 -2.431,-1.984 l 0,0 c 0,-1.1 1.087,-1.985 2.431,-1.985 l 25.595,0 c 1.339,-10e-4 2.43,0.885 2.43,1.985 l 0,0 z"
         id="path664"
         style="fill:#f0f0f0;fill-opacity:1" />
      <path
         inkscape:connector-curvature="0"
         d="m 231.325,178.345 c -0.434,-1.359 -1.935,-2.73 -3.417,-1.943 -0.237,0.139 -0.439,0.312 -0.608,0.512 -1.313,-2.295 -3.772,-4.445 -6.033,-5.023 -0.693,-0.181 -1.39,-0.34 -2.09,-0.478 0.081,-0.21 0.124,-0.431 0.124,-0.66 0,-1.32 -1.426,-2.386 -3.179,-2.386 l -8.44,0 c -1.758,0 -3.181,1.065 -3.181,2.386 0,0.229 0.044,0.45 0.123,0.659 -0.7,0.139 -1.398,0.298 -2.092,0.479 -2.159,0.553 -4.499,2.536 -5.846,4.712 -0.091,-0.071 -0.188,-0.139 -0.29,-0.2 -1.481,-0.787 -2.983,0.584 -3.417,1.943 -0.842,2.905 -1.043,5.688 -0.625,8.685 0.206,1.23 1.222,2.589 2.532,2.524 -0.087,7.599 0.333,15.852 0.333,15.852 0.085,0.911 0.834,1.672 1.725,1.805 -0.173,0.273 -0.27,0.58 -0.27,0.909 0,1.094 1.087,1.982 2.431,1.982 l 25.595,0 c 1.339,0 2.43,-0.889 2.43,-1.982 0,-0.329 -0.098,-0.637 -0.27,-0.909 0.889,-0.136 1.637,-0.895 1.724,-1.805 0,0 0.423,-8.323 0.332,-15.948 1.546,0.501 2.804,-1.042 3.036,-2.428 0.416,-2.999 0.215,-5.781 -0.627,-8.686 z"
         id="path666"
         style="fill:#f0f0f0;fill-opacity:1" />
      <path
         inkscape:connector-curvature="0"
         d="m 246.204,160.553 c -2.134,0.246 -2.116,2.779 -0.942,3.861 1.299,1.2 0.174,2.766 -0.947,3.734 -0.478,-0.43 -1.111,-0.694 -1.808,-0.694 -0.918,0 -1.728,0.459 -2.215,1.157 -0.208,-0.398 -0.319,-0.909 -0.194,-1.55 0.405,-2.063 1.521,-1.012 2.219,-1.968 0.698,-0.949 -0.432,-2.475 -2.298,-1.89 -1.865,0.589 -2.226,3.079 -1.291,4.854 0.326,0.621 0.76,1.095 1.163,1.44 -0.05,0.207 -0.079,0.427 -0.079,0.651 0,0.647 0.23,1.242 0.612,1.706 -0.403,0.409 -0.684,0.961 -0.772,1.591 -0.709,0.538 -1.323,1.323 -1.733,2.286 -0.644,0.276 -1.28,0.648 -1.882,1.124 -0.042,0.032 -0.081,0.067 -0.119,0.101 -0.356,-0.021 -0.721,-0.021 -1.089,0.003 -3.9,0.245 -3.214,11.254 0.687,11.008 2.485,-0.154 4.609,-1.293 5.774,-2.886 0.163,-0.063 0.317,-0.151 0.467,-0.268 2.098,-1.655 3.199,-4.055 2.986,-6.082 0.611,-1.622 0.497,-3.308 -0.188,-4.499 0.008,-0.032 0.016,-0.065 0.019,-0.099 0.08,-0.683 -0.082,-1.338 -0.411,-1.859 0.633,-0.495 1.04,-1.262 1.04,-2.126 0,-0.152 -0.013,-0.301 -0.037,-0.448 1.3,-0.613 2.826,-1.613 3.579,-3.112 1.62,-3.228 -0.407,-6.276 -2.541,-6.035 z"
         id="path668"
         style="fill:#f0f0f0;fill-opacity:1" />
      <path
         inkscape:connector-curvature="0"
         d="m 189.473,176.83 c -0.368,-0.023 -0.732,-0.023 -1.089,-0.003 -0.038,-0.033 -0.076,-0.067 -0.118,-0.102 -0.603,-0.475 -1.24,-0.848 -1.883,-1.123 -0.411,-0.963 -1.023,-1.747 -1.732,-2.284 -0.089,-0.632 -0.371,-1.185 -0.772,-1.592 0.382,-0.464 0.611,-1.062 0.611,-1.708 0,-0.223 -0.028,-0.443 -0.079,-0.65 0.404,-0.348 0.838,-0.82 1.163,-1.441 0.934,-1.773 0.575,-4.265 -1.291,-4.853 -1.867,-0.586 -2.997,0.941 -2.299,1.889 0.698,0.957 1.815,-0.095 2.219,1.971 0.126,0.64 0.016,1.149 -0.193,1.548 -0.486,-0.699 -1.296,-1.158 -2.215,-1.158 -0.696,0 -1.33,0.264 -1.806,0.696 -1.121,-0.971 -2.247,-2.534 -0.948,-3.734 1.175,-1.083 1.192,-3.616 -0.941,-3.864 -2.133,-0.24 -4.161,2.811 -2.541,6.039 0.753,1.497 2.279,2.496 3.579,3.112 -0.024,0.146 -0.037,0.294 -0.037,0.446 0,0.864 0.407,1.633 1.04,2.126 -0.329,0.521 -0.491,1.178 -0.412,1.859 0.004,0.032 0.011,0.066 0.02,0.098 -0.685,1.193 -0.799,2.88 -0.189,4.502 -0.213,2.026 0.889,4.426 2.987,6.082 0.148,0.115 0.306,0.205 0.467,0.267 1.164,1.592 3.289,2.73 5.773,2.886 3.898,0.243 4.586,-10.764 0.686,-11.009 z"
         id="path670"
         style="fill:#f0f0f0;fill-opacity:1" />
      <path
         inkscape:connector-curvature="0"
         d="m 232.431,150.898 c 0.017,-3.508 -0.464,-7.003 -1.392,-10.489 l -0.008,-0.026 -0.013,-0.049 -0.021,-0.074 -0.007,-0.025 -0.007,-0.022 c -0.243,-0.781 -0.587,-1.469 -0.963,-2.036 -0.375,-0.569 -0.777,-1.021 -1.157,-1.399 l -0.014,-0.015 -0.02,-0.017 c -0.804,-0.777 -1.807,-1.474 -3.01,-1.828 l -0.009,-0.003 -0.033,-0.01 -0.017,-0.005 -0.03,-0.007 -0.008,-0.002 -0.007,-0.003 c -1.245,-0.323 -3.486,-0.594 -6.002,-0.812 -0.445,-2.936 -3.004,-5.063 -5.959,-5.075 -0.736,-2.033 -2,-3.667 -3.764,-4.633 0.003,-0.294 -0.012,-0.596 -0.05,-0.896 -0.442,-3.55 -3.662,-6.056 -7.204,-5.613 -3.549,0.442 -6.059,3.663 -5.615,7.212 0.442,3.545 3.665,6.05 7.214,5.609 2.643,-0.331 4.708,-2.208 5.404,-4.612 1.005,0.737 1.763,1.798 2.275,3.174 -2.08,0.595 -3.653,2.228 -4.193,4.228 -3.388,-0.02 -6.774,0.406 -10.22,1.256 l -0.03,0.008 -0.022,0.006 -0.029,0.007 -0.01,0.003 -0.014,0.004 c -1.206,0.342 -2.217,1.026 -3.032,1.792 l -0.014,0.015 -0.019,0.018 c -0.383,0.374 -0.79,0.823 -1.173,1.386 -0.383,0.563 -0.734,1.247 -0.986,2.026 l -0.005,0.015 -0.016,0.052 -0.019,0.06 -0.024,0.088 0.004,-0.015 0.001,-0.01 c -0.968,3.475 -1.49,6.963 -1.514,10.471 0,0.015 0,0.044 0,0.087 -0.019,3.513 0.461,7.013 1.394,10.506 l 0.003,0.013 0.017,0.067 0.028,0.09 0.007,0.022 0,-0.002 c 0.242,0.781 0.587,1.471 0.963,2.038 0.376,0.567 0.777,1.023 1.155,1.399 l 0.016,0.013 0.018,0.019 c 0.805,0.778 1.81,1.473 3.012,1.827 l 0.011,0.005 0.047,0.016 0.048,0.012 0,-0.002 c 0.002,0.002 0.005,0.003 0.006,0.003 l 0.008,0.002 -0.002,0 c 3.434,0.888 6.816,1.351 10.203,1.369 0,0 0.003,0 0.004,0 3.39,0.021 14.443,-0.361 17.892,-1.21 l 0.023,-0.006 0.031,-0.009 0.041,-0.011 0.011,-0.003 c 1.206,-0.342 2.218,-1.027 3.031,-1.793 l 0.02,-0.021 0.013,-0.011 c 0.383,-0.375 0.792,-0.824 1.174,-1.386 0.383,-0.563 0.735,-1.247 0.986,-2.028 l 0.011,-0.033 0.02,-0.068 0.015,-0.051 0.006,-0.017 0.005,-0.021 c 0.962,-3.449 1.483,-6.912 1.513,-10.393 l 0,-0.004 0,-0.126 c 0.002,-0.02 0.002,-0.036 0.002,-0.047 z"
         id="path672"
         style="fill:#f0f0f0;fill-opacity:1" />
      <path
         inkscape:connector-curvature="0"
         id="path4972"
         d="m 246.204,160.553 c -2.134,0.246 -2.116,2.779 -0.942,3.861 1.299,1.2 0.174,2.766 -0.947,3.734 -0.478,-0.43 -1.111,-0.694 -1.808,-0.694 -0.918,0 -1.728,0.459 -2.215,1.157 -0.208,-0.398 -0.319,-0.909 -0.194,-1.55 0.405,-2.063 1.521,-1.012 2.219,-1.968 0.698,-0.949 -0.432,-2.475 -2.298,-1.89 -1.865,0.589 -2.226,3.079 -1.291,4.854 0.326,0.621 0.76,1.095 1.163,1.44 -0.05,0.207 -0.079,0.427 -0.079,0.651 0,0.647 0.23,1.242 0.612,1.706 -0.403,0.409 -0.684,0.961 -0.772,1.591 -0.709,0.538 -1.323,1.323 -1.733,2.286 -0.644,0.276 -1.28,0.648 -1.882,1.124 -0.042,0.032 -0.081,0.067 -0.119,0.101 -0.356,-0.021 -0.721,-0.021 -1.089,0.003 -3.9,0.245 -3.214,11.254 0.687,11.008 2.485,-0.154 4.609,-1.293 5.774,-2.886 0.163,-0.063 0.317,-0.151 0.467,-0.268 2.098,-1.655 3.199,-4.055 2.986,-6.082 0.611,-1.622 0.497,-3.308 -0.188,-4.499 0.008,-0.032 0.016,-0.065 0.019,-0.099 0.08,-0.683 -0.082,-1.338 -0.411,-1.859 0.633,-0.495 1.04,-1.262 1.04,-2.126 0,-0.152 -0.013,-0.301 -0.037,-0.448 1.3,-0.613 2.826,-1.613 3.579,-3.112 1.62,-3.228 -0.407,-6.276 -2.541,-6.035 z"
         style="fill:#f0f0f0;fill-opacity:1" />
      <path
         inkscape:connector-curvature="0"
         id="path4974"
         d="m 189.473,176.83 c -0.368,-0.023 -0.732,-0.023 -1.089,-0.003 -0.038,-0.033 -0.076,-0.067 -0.118,-0.102 -0.603,-0.475 -1.24,-0.848 -1.883,-1.123 -0.411,-0.963 -1.023,-1.747 -1.732,-2.284 -0.089,-0.632 -0.371,-1.185 -0.772,-1.592 0.382,-0.464 0.611,-1.062 0.611,-1.708 0,-0.223 -0.028,-0.443 -0.079,-0.65 0.404,-0.348 0.838,-0.82 1.163,-1.441 0.934,-1.773 0.575,-4.265 -1.291,-4.853 -1.867,-0.586 -2.997,0.941 -2.299,1.889 0.698,0.957 1.815,-0.095 2.219,1.971 0.126,0.64 0.016,1.149 -0.193,1.548 -0.486,-0.699 -1.296,-1.158 -2.215,-1.158 -0.696,0 -1.33,0.264 -1.806,0.696 -1.121,-0.971 -2.247,-2.534 -0.948,-3.734 1.175,-1.083 1.192,-3.616 -0.941,-3.864 -2.133,-0.24 -4.161,2.811 -2.541,6.039 0.753,1.497 2.279,2.496 3.579,3.112 -0.024,0.146 -0.037,0.294 -0.037,0.446 0,0.864 0.407,1.633 1.04,2.126 -0.329,0.521 -0.491,1.178 -0.412,1.859 0.004,0.032 0.011,0.066 0.02,0.098 -0.685,1.193 -0.799,2.88 -0.189,4.502 -0.213,2.026 0.889,4.426 2.987,6.082 0.148,0.115 0.306,0.205 0.467,0.267 1.164,1.592 3.289,2.73 5.773,2.886 3.898,0.243 4.586,-10.764 0.686,-11.009 z"
         style="fill:#f0f0f0;fill-opacity:1" />
    </g>
    <text
       xml:space="preserve"
       style="font-style:normal;font-weight:normal;font-size:79.44248199px;line-height:125%;font-family:sans-serif;letter-spacing:0px;word-spacing:0px;fill:#f33b4a;fill-opacity:1;stroke:none;stroke-width:1px;stroke-linecap:butt;stroke-linejoin:miter;stroke-opacity:1;"
       x="133.86661"
       y="498.13037"
       id="text5576"
       sodipodi:linespacing="125%"><tspan
         sodipodi:role="line"
         id="tspan5578"
         x="133.86661"
         y="498.13037"
         style="font-style:normal;font-variant:normal;font-weight:normal;font-stretch:normal;font-family:Robotica;-inkscape-font-specification:Robotica;fill:#f33b4a;fill-opacity:1;">Tiger</tspan><tspan
         sodipodi:role="line"
         x="133.86661"
         y="597.43347"
         id="tspan5580"
         style="font-style:normal;font-variant:normal;font-weight:normal;font-stretch:normal;font-family:Robotica;-inkscape-font-specification:Robotica;fill:#f33b4a;fill-opacity:1;">  Robotics</tspan></text>
  </g>
</svg>
