<?xml version="1.0" encoding="UTF-8" standalone="no"?>
<svg
   xmlns:dc="http://purl.org/dc/elements/1.1/"
   xmlns:cc="http://creativecommons.org/ns#"
   xmlns:rdf="http://www.w3.org/1999/02/22-rdf-syntax-ns#"
   xmlns:svg="http://www.w3.org/2000/svg"
   xmlns="http://www.w3.org/2000/svg"
   version="1.1"
   id="svg6454"
   viewBox="0 0 494.67381 494.67375"
   height="139.60793mm"
   width="139.60794mm">
  <defs
     id="defs6456" />
  <metadata
     id="metadata6459">
    <rdf:RDF>
      <cc:Work
         rdf:about="">
        <dc:format>image/svg+xml</dc:format>
        <dc:type
           rdf:resource="http://purl.org/dc/dcmitype/StillImage" />
        <dc:title></dc:title>
      </cc:Work>
    </rdf:RDF>
  </metadata>
  <g
     transform="translate(-140.0162,-259.38071)"
     id="layer1">
    <g
       id="g4717"
       transform="translate(-1398.3742,-80.03244)">
      <path
         style="opacity:1;fill:#f33b4a;fill-opacity:1;stroke:none;stroke-width:1;stroke-miterlimit:4;stroke-dasharray:none;stroke-opacity:1"
         d="m 1538.3904,586.75003 c 0,57.86582 0,146.53719 0,247.33688 59.5602,0 168.6024,0 247.3369,0 l 247.3369,0 0,-247.33688 c 0,-136.60039 -110.7365,-247.33689 -247.3369,-247.33688 -136.6004,-10e-6 -247.3369,110.73649 -247.3369,247.33688 z"
         id="path4715" />
      <path
         style="fill:#f0f0f0;fill-opacity:1"
         d="m 1718.2285,686.80324 c -16.3346,-2.3914 -34.3291,-8.36429 -48.4863,-16.094 -3.9875,-2.17713 -7.25,-4.11821 -7.25,-4.3135 0,-0.1953 4.8375,-0.37249 10.75,-0.39376 16.787,-0.0604 30.7104,-3.31513 45.2854,-10.58592 6.6069,-3.29587 16.9437,-9.78621 16.9558,-10.64631 0.01,-0.34164 -2.1999,-0.91416 -4.8994,-1.27226 -17.6114,-2.33623 -33.5867,-14.46269 -40.3209,-30.60657 l -1.46,-3.5 9.0946,-0.01 c 5.0019,-0.005 9.9945,-0.38246 11.0945,-0.83796 1.6614,-0.68799 0.9551,-1.21043 -4.1726,-3.0863 -19.1028,-6.98838 -31.2357,-22.48775 -33.8429,-43.23301 l -0.6494,-5.16706 6.1082,2.46723 c 3.3596,1.35697 8.4592,2.72537 11.3325,3.04089 l 5.2242,0.57367 -5.0925,-4.87384 c -10.8209,-10.35604 -15.4538,-20.40904 -16.1858,-35.12171 -0.4831,-9.70912 0.46,-15.31669 3.9339,-23.39202 l 2.0077,-4.66703 7.6683,8.03663 c 16.6963,17.49817 37.823,30.83384 60.5995,38.25181 9.121,2.97059 22.4895,5.73699 33.0689,6.84311 l 4,0.41821 0.065,-11.62131 c 0.073,-13.06441 1.8088,-19.19911 8.1658,-28.8583 16.4392,-24.97898 53.1208,-30.03682 75.3909,-10.39527 l 4.6215,4.07605 7.3785,-2.04293 c 4.0581,-1.12361 11.0909,-3.78177 15.6284,-5.90703 4.5375,-2.12525 8.25,-3.42832 8.25,-2.89572 0,4.13852 -9.4123,17.19248 -16.1053,22.33653 -2.142,1.64635 -3.8947,3.30253 -3.8947,3.68041 0,1.01152 15.6549,-2.59788 21.7847,-5.02271 4.7741,-1.88852 5.1917,-1.92151 4.3221,-0.34142 -1.974,3.58656 -10.9713,13.43559 -17.184,18.81068 l -6.4228,5.55689 -0.6377,13.19075 c -2.5869,53.50532 -33.9388,102.15631 -80.3623,124.70366 -19.7794,9.60667 -40.6095,14.06026 -64.8494,13.86516 -8.3328,-0.0671 -17.7442,-0.50165 -20.9142,-0.96574 z"
         id="path4675" />
    </g>
  </g>
</svg>
